<?xml version="1.0" encoding="UTF-8" standalone="no"?>
<!DOCTYPE svg PUBLIC "-//W3C//DTD SVG 1.1//EN" "http://www.w3.org/Graphics/SVG/1.1/DTD/svg11.dtd">
<svg width="100%" height="100%" viewBox="0 0 20 20" version="1.1" xmlns="http://www.w3.org/2000/svg" xmlns:xlink="http://www.w3.org/1999/xlink" xml:space="preserve" xmlns:serif="http://www.serif.com/" style="fill-rule:evenodd;clip-rule:evenodd;stroke-linejoin:round;stroke-miterlimit:1.41421;">
    <path id="fullscreen" d="M-0.021,17.022L-0.021,12L2.979,12L2.979,17.022L7.979,17.022L7.979,20.022L-0.021,20.022L-0.021,17.022ZM11.978,17L17,17L17,12L20,12L20,20L17,20L11.978,20L11.978,17ZM20,0L20,8.022L17,8.022L17,3L12,3L12,0L20,0ZM-0.022,0L8,0L8,3L2.978,3L2.978,8L-0.022,8L-0.022,0Z"/>
</svg>
